/* XPM */
static char * en_gr_s_xpm[] = {
"24 24 2 1",
" 	c None",
".	c #000000",
"                        ",
"                        ",
"                        ",
"                        ",
"                        ",
"                        ",
"                        ",
"                        ",
"                        ",
"                        ",
"                        ",
"                        ",
"     .                  ",
"    . .                 ",
"    . .  ..    ...    . ",
"   .   .  .   .  .   .  ",
"   .   .  .   .  .   .  ",
"  .......  . ..   . ..  ",
"  .     .  . .    . .   ",
"  .     .  ...    ...   ",
" .       .  .      .    ",
"            .      .    ",
"            .      .    ",
"            .      .    "};
