/* XPM */
static char * en_txt_xpm[] = {
"28 15 2 1",
" 	c None",
".	c #FFFFFF",
"                            ",
"    ..                      ",
"    ..                      ",
"   .  .                     ",
"   .  .   ..      ...      .",
"  .    .   .     .  .     . ",
"  .    .    .    .   .    . ",
"  .    .    .   .    .   .  ",
" ........    .  .     .  .  ",
" .      .    . .      . .   ",
" .      .    ...      ...   ",
".        .    .        .    ",
"              .        .    ",
"              .        .    ",
"              .        .    "};
