/* XPM */
static char * en_txt_bold_xpm[] = {
"22 15 2 1",
" 	c None",
".	c #FFFFFF",
"                      ",
"                      ",
"                      ",
"    ..                ",
"    ..                ",
"   . ..  ..   . ..   .",
"   . ..   .. .   .. . ",
"  .  ..   .. .   .. . ",
"  ......  ....   .... ",
" .    ..   ..     ..  ",
" .    ..   ..     ..  ",
".      ..  ..     ..  ",
"           ..     ..  ",
"            .      .  ",
"                      "};
