/* XPM */
static char * gb28x15_xpm[] = {
"28 15 126 2",
"  	c None",
". 	c #D74040",
"+ 	c #F3BEBD",
"@ 	c #F9F3F4",
"# 	c #B8B7D3",
"$ 	c #393A87",
"% 	c #060667",
"& 	c #000066",
"* 	c #000065",
"= 	c #000062",
"- 	c #3C418F",
"; 	c #E29C9E",
"> 	c #CB0302",
", 	c #010166",
"' 	c #050567",
") 	c #393683",
"! 	c #AF819C",
"~ 	c #D64243",
"{ 	c #D83A39",
"] 	c #EFB4B5",
"^ 	c #B1748C",
"/ 	c #CB2D31",
"( 	c #DA5051",
"_ 	c #F9C3C0",
": 	c #FCEFF0",
"< 	c #AAA9CA",
"[ 	c #3B3C88",
"} 	c #0C0C6B",
"| 	c #000061",
"1 	c #3C428F",
"2 	c #E29D9F",
"3 	c #CB0303",
"4 	c #000167",
"5 	c #39307C",
"6 	c #A27494",
"7 	c #E15E5C",
"8 	c #DE3E3B",
"9 	c #ECA4A4",
"0 	c #F1F2F7",
"a 	c #BDC1DB",
"b 	c #4E5398",
"c 	c #AC6680",
"d 	c #C62C34",
"e 	c #DE5E5D",
"f 	c #FCC3BE",
"g 	c #F9E7E8",
"h 	c #A3A2C5",
"i 	c #3E3F89",
"j 	c #0B0B6B",
"k 	c #3B418E",
"l 	c #E19C9F",
"m 	c #0B0C6C",
"n 	c #3A2D77",
"o 	c #986689",
"p 	c #E26868",
"q 	c #E44843",
"r 	c #EA9999",
"s 	c #EAE7EF",
"t 	c #BBC2DD",
"u 	c #4D4D92",
"v 	c #00005F",
"w 	c #0E1171",
"x 	c #070B6C",
"y 	c #111D79",
"z 	c #6467A4",
"A 	c #B46B81",
"B 	c #D04144",
"C 	c #E47170",
"D 	c #FFD0CB",
"E 	c #F8F2F4",
"F 	c #9A9DC4",
"G 	c #727BB2",
"H 	c #E4A0A2",
"I 	c #7274AC",
"J 	c #916990",
"K 	c #E27676",
"L 	c #E7544F",
"M 	c #EB9796",
"N 	c #F3EFF3",
"O 	c #C6D1E9",
"P 	c #6367A4",
"Q 	c #10126F",
"R 	c #070A6C",
"S 	c #8A76A0",
"T 	c #8B76A0",
"U 	c #8A749F",
"V 	c #806D9B",
"W 	c #9086AF",
"X 	c #D5B9C7",
"Y 	c #EA8A88",
"Z 	c #E37575",
"` 	c #F5C6C5",
" .	c #FFEEEA",
"..	c #F8E6E8",
"+.	c #E99292",
"@.	c #CB0202",
"#.	c #E99291",
"$.	c #F5D2D3",
"%.	c #F38680",
"&.	c #E7807F",
"*.	c #F6D3D3",
"=.	c #FFF3F1",
"-.	c #D7C3D1",
";.	c #8E79A2",
">.	c #806C99",
",.	c #8A759F",
"'.	c #E75F59",
").	c #E9605A",
"!.	c #E75D58",
"~.	c #E05756",
"{.	c #DE5C5C",
"].	c #DF5E5E",
"^.	c #DD5454",
"/.	c #DC5050",
"(.	c #DE5554",
"_.	c #D63434",
":.	c #CC0000",
"<.	c #DE5757",
"[.	c #DE5D5D",
"}.	c #DC5454",
"|.	c #DB5050",
"1.	c #DF5453",
"2.	c #C70000",
"3.	c #C60000",
"4.	c #C90000",
"5.	c #CB0000",
"                                                        ",
"  . + @ # $ % & * * = - ; > > ; - = * * , ' ) ! ~ { ]   ",
"  ^ / ( _ : < [ } * | 1 2 3 3 2 1 | 4 } 5 6 7 8 9 0 a   ",
"  4 b c d e f g h i j k l 3 3 l 1 m n o p q r s t u v   ",
"  w x y z A B C D E F G H 3 3 H I J K L M N O P Q R w   ",
"  S T U V W X Y Z `  ...+.@.@.#.$.%.&.*.=.-.;.>.,.T S   ",
"  '.).).).!.~.{.].^./.(._.:.:._.<.[.[.}.|.1.!.).).).'.  ",
"  2.3.3.3.3.3.3.3.3.3.3.4.5.5.4.3.3.3.3.3.3.3.3.3.3.2.  ",
"  '.).).).!.1.|.}.[.[.<._.:.:._.(./.^.].{.~.!.).).).'.  ",
"  S T ,.>.;.-.=.*.&.%.$.#.@.@.+... .` Z Y X W V U T S   ",
"  w R Q P O N M L K J I H 3 3 H G F E D C B A z y x w   ",
"  v u t s r q p o n m 1 l 3 3 l k j i h g f e d c b 4   ",
"  a 0 9 8 7 6 5 } 4 | 1 2 3 3 2 1 | * } [ < : _ ( / ^   ",
"  ] { ~ ! ) ' , * * = - ; > > ; - = * * & % $ # @ + .   ",
"                                                        "};
