/* XPM */
static char * gr_xpm[] = {
"30 15 360 2",
"  	c None",
". 	c #1F1E97",
"+ 	c #25259A",
"@ 	c #9898CF",
"# 	c #FFFFFF",
"$ 	c #FFFFFE",
"% 	c #D6D5DE",
"& 	c #474681",
"* 	c #090861",
"= 	c #151476",
"- 	c #18177D",
"; 	c #17167C",
"> 	c #19197E",
", 	c #1D1C81",
"' 	c #222283",
") 	c #2A2986",
"! 	c #3C3B8D",
"~ 	c #5A589B",
"{ 	c #8382B7",
"] 	c #AEADD3",
"^ 	c #CFCFE5",
"/ 	c #C4C3D7",
"( 	c #6664AA",
"_ 	c #28269A",
": 	c #28269E",
"< 	c #27269B",
"[ 	c #1F1E92",
"} 	c #1E1D7C",
"| 	c #222169",
"1 	c #100F5E",
"2 	c #21209A",
"3 	c #2928A0",
"4 	c #7C7BC5",
"5 	c #FCFCFD",
"6 	c #8C8BBA",
"7 	c #0A0965",
"8 	c #100F60",
"9 	c #111063",
"0 	c #0F0F66",
"a 	c #34347B",
"b 	c #9B9AB7",
"c 	c #C9C7D2",
"d 	c #D6D5DA",
"e 	c #DEDCDD",
"f 	c #E6E4E2",
"g 	c #E8E6E3",
"h 	c #EAE8E5",
"i 	c #F1EFEB",
"j 	c #FCFAF7",
"k 	c #F5F5F4",
"l 	c #9493C0",
"m 	c #3E3CA1",
"n 	c #3231A2",
"o 	c #3F3EA6",
"p 	c #5454AF",
"q 	c #6E6EAB",
"r 	c #53528A",
"s 	c #33329C",
"t 	c #3534A1",
"u 	c #7271C0",
"v 	c #C5C5E5",
"w 	c #6B6BB4",
"x 	c #605F9E",
"y 	c #575695",
"z 	c #605F9C",
"A 	c #6E6DA5",
"B 	c #8B8AB3",
"C 	c #A2A1C3",
"D 	c #8482B6",
"E 	c #7170AF",
"F 	c #5C5BA5",
"G 	c #53529E",
"H 	c #6E6CA1",
"I 	c #AAA8BA",
"J 	c #D8D7DB",
"K 	c #EEEDF1",
"L 	c #F1F1F8",
"M 	c #D6D5E7",
"N 	c #BBBAD9",
"O 	c #D4D3E7",
"P 	c #F6F5F8",
"Q 	c #FFFFFC",
"R 	c #E8E7EF",
"S 	c #DCDAE7",
"T 	c #E1E1EC",
"U 	c #FFFFFD",
"V 	c #FFFEFE",
"W 	c #FEFEFE",
"X 	c #8888C9",
"Y 	c #151492",
"Z 	c #151490",
"` 	c #1A1996",
" .	c #181790",
"..	c #161573",
"+.	c #3A3877",
"@.	c #5D5C9A",
"#.	c #5A59AC",
"$.	c #4746A9",
"%.	c #3332A0",
"&.	c #262499",
"*.	c #282695",
"=.	c #5857A8",
"-.	c #A7A7CF",
";.	c #E1E1EE",
">.	c #FCFBF8",
",.	c #FDFCFB",
"'.	c #9695D1",
").	c #1E1D9D",
"!.	c #1B1A99",
"~.	c #1B1A96",
"{.	c #23229B",
"].	c #2E2DA0",
"^.	c #2A2994",
"/.	c #1E1D77",
"(.	c #0E0D75",
"_.	c #0F0E81",
":.	c #1F1E96",
"<.	c #201F97",
"[.	c #1D1C96",
"}.	c #4C4BA0",
"|.	c #FAF9FC",
"1.	c #F3F3FA",
"2.	c #F3F3F9",
"3.	c #FDFDFB",
"4.	c #FEFEFD",
"5.	c #FAFAFD",
"6.	c #EDEDF8",
"7.	c #E8E8F5",
"8.	c #E7E6F5",
"9.	c #E1E1F1",
"0.	c #D9D9ED",
"a.	c #D4D4EB",
"b.	c #9291CE",
"c.	c #605EBA",
"d.	c #6867BC",
"e.	c #7271BE",
"f.	c #8080C5",
"g.	c #9190CC",
"h.	c #9797CB",
"i.	c #7877AF",
"j.	c #4B4A99",
"k.	c #3E3D98",
"l.	c #3F3E9B",
"m.	c #43419F",
"n.	c #4B49A2",
"o.	c #5756AB",
"p.	c #6765B3",
"q.	c #7A79BE",
"r.	c #8988C6",
"s.	c #9C9BD6",
"t.	c #8F8DD1",
"u.	c #8282CC",
"v.	c #A4A3DA",
"w.	c #E7E6F2",
"x.	c #908FCE",
"y.	c #6A69C1",
"z.	c #6C6BC2",
"A.	c #5F5EBA",
"B.	c #4F4FB0",
"C.	c #3C3BA8",
"D.	c #8988CA",
"E.	c #F4F4FA",
"F.	c #FDFCF7",
"G.	c #DEDCE2",
"H.	c #C8C7D9",
"I.	c #C3C2D3",
"J.	c #C5C3D2",
"K.	c #D4D2DB",
"L.	c #E8E6E7",
"M.	c #E7E5E8",
"N.	c #E4E3E7",
"O.	c #FEFDF4",
"P.	c #2422A5",
"Q.	c #201EA5",
"R.	c #2120A5",
"S.	c #5E5CBD",
"T.	c #EBEAF4",
"U.	c #6463B8",
"V.	c #121099",
"W.	c #1F1DA2",
"X.	c #1C1BA0",
"Y.	c #1B1A9D",
"Z.	c #151499",
"`.	c #7776C2",
" +	c #FFFEF4",
".+	c #FFFFF7",
"++	c #FFFFF9",
"@+	c #E9E8EF",
"#+	c #C4C2DF",
"$+	c #9B99CC",
"%+	c #7472B9",
"&+	c #605FAD",
"*+	c #7776B3",
"=+	c #2C2AA9",
"-+	c #2B29A8",
";+	c #2827A7",
">+	c #5553B8",
",+	c #8584C6",
"'+	c #171697",
")+	c #2221A1",
"!+	c #2423A3",
"~+	c #1D1C9F",
"{+	c #6F6FC0",
"]+	c #F6F6FB",
"^+	c #E8E8F3",
"/+	c #D9D8EC",
"(+	c #C8C8E6",
"_+	c #B8B8E0",
":+	c #ABABDB",
"<+	c #A3A3D7",
"[+	c #9493CB",
"}+	c #8887BD",
"|+	c #7B7AB9",
"1+	c #5F5EB4",
"2+	c #4341AA",
"3+	c #28279E",
"4+	c #1D1B97",
"5+	c #181792",
"6+	c #11108B",
"7+	c #2C2BAA",
"8+	c #2D2BA9",
"9+	c #2725A6",
"0+	c #4B4AB4",
"a+	c #F2F1F9",
"b+	c #9999CF",
"c+	c #1D1C95",
"d+	c #1C1B96",
"e+	c #1E1D99",
"f+	c #21209E",
"g+	c #2322A1",
"h+	c #3B3AAB",
"i+	c #6160B9",
"j+	c #5454B2",
"k+	c #4948AB",
"l+	c #4241AA",
"m+	c #3D3CAA",
"n+	c #3A39AB",
"o+	c #3533AA",
"p+	c #2D2CA5",
"q+	c #24239A",
"r+	c #18178D",
"s+	c #14138D",
"t+	c #1A1995",
"u+	c #12118E",
"v+	c #232292",
"w+	c #3C3C9F",
"x+	c #2726A6",
"y+	c #2D2CAA",
"z+	c #2625A7",
"A+	c #4342B1",
"B+	c #E5E4F3",
"C+	c #B5B4DD",
"D+	c #302F9D",
"E+	c #17168D",
"F+	c #19188A",
"G+	c #1A1989",
"H+	c #201F99",
"I+	c #2322A2",
"J+	c #1F1E9F",
"K+	c #1C1B9C",
"L+	c #1B1A98",
"M+	c #1C1B9A",
"N+	c #1C1B98",
"O+	c #1A1895",
"P+	c #191898",
"Q+	c #1E1C9E",
"R+	c #201EA1",
"S+	c #1A189C",
"T+	c #111092",
"U+	c #1C1B95",
"V+	c #4E4DAB",
"W+	c #9897CB",
"X+	c #C8C7E0",
"Y+	c #D6D5E6",
"Z+	c #2221A2",
"`+	c #2927A8",
" @	c #2B29A9",
".@	c #3C3CB0",
"+@	c #CECEEB",
"@@	c #D0D0EB",
"#@	c #4A49B1",
"$@	c #181798",
"%@	c #171690",
"&@	c #121180",
"*@	c #0D0D74",
"=@	c #14138E",
"-@	c #19189C",
";@	c #141397",
">@	c #1A189A",
",@	c #3130A3",
"'@	c #5A59AF",
")@	c #7D7CB7",
"!@	c #7D7CB6",
"~@	c #7775B8",
"{@	c #8785C6",
"]@	c #A6A4D5",
"^@	c #C9C9E3",
"/@	c #E4E2ED",
"(@	c #F7F5F6",
"_@	c #FFFFFB",
":@	c #FBFAF5",
"<@	c #2120A6",
"[@	c #2221A7",
"}@	c #302FAD",
"|@	c #ACACDD",
"1@	c #E1E1F3",
"2@	c #5F5EC0",
"3@	c #2C2BAB",
"4@	c #4B4BB3",
"5@	c #7877C0",
"6@	c #9E9CC6",
"7@	c #7F7EAF",
"8@	c #7271BA",
"9@	c #9392D1",
"0@	c #B1B1DC",
"a@	c #CCCBE8",
"b@	c #E4E4F2",
"c@	c #EFEFF7",
"d@	c #F4F4F8",
"e@	c #F3F3F5",
"f@	c #EBEAED",
"g@	c #E6E4E6",
"h@	c #EBE9E7",
"i@	c #F6F4EF",
"j@	c #FFFFFA",
"k@	c #F1EFEC",
"l@	c #4848B8",
"m@	c #7777CA",
"n@	c #A9A9DC",
"o@	c #CDCCEA",
"p@	c #ECECF7",
"q@	c #FBFBFD",
"r@	c #EAEAF7",
"s@	c #F8F8FC",
"t@	c #FBFBFC",
"u@	c #F7F7F8",
"v@	c #EBE9EA",
"w@	c #F3F2F3",
"x@	c #F0EFF5",
"y@	c #C8C7DF",
"z@	c #A8A6CE",
"A@	c #9392C3",
"B@	c #8B8AC2",
"C@	c #7775B7",
"D@	c #3E3D8C",
"E@	c #FCFCFE",
"F@	c #FDFDFE",
"G@	c #F6F4F3",
"H@	c #F7F6F3",
"I@	c #FFFEFC",
"J@	c #F5F4FA",
"K@	c #BFBEE5",
"L@	c #6D6CC3",
"M@	c #3534AA",
"N@	c #24239F",
"O@	c #21209C",
"P@	c #21209B",
"Q@	c #1E1D95",
"R@	c #1A1981",
"S@	c #171780",
". + @ # $ % & * = - ; ; > , ' ) ! ~ { ] ^ / ( _ : < [ } | 1 ",
"2 3 4 # # 5 6 7 8 9 0 a b c d e f g h i j # k l m n o p q r ",
"s t u # # # v w x y z A B C D E F G H I J K L L M N O P # Q ",
"R S T U V W # # # # # # # X Y Z Z `  ...+.@.#.$.%.&.*.=.-.;.",
"# # Q >.,.W # # # # # # # '.).!.~.{.].^./.(._. .:.<.<.[. .}.",
"# |.1.2.3.4.5.6.7.8.9.0.a.b.c.d.e.f.g.h.i.j.k.l.m.n.o.p.q.r.",
"s.t.u.v.# U w.x.y.z.A.B.C.D.E.W # # # # F.G.H.I.J.K.L.M.N.O.",
"P.Q.R.S.# # T.U.V.W.X.Y.Z.`.# # # # # # U  +.+++@+#+$+%+&+*+",
"=+-+;+>+W # # ,+'+)+!+!+~+{+]+^+/+(+_+:+<+[+}+|+1+2+3+4+5+6+",
"7+8+9+0+a+# # b+c+d+e+f+g+h+i+j+k+l+m+n+o+p+q+r+s+d+t+u+v+w+",
"x+y+z+A+B+# # C+D+E+F+G+H+I+J+K+L+M+N+O+P+Q+R+S+T+U+V+W+X+Y+",
"Z+`+ @.@+@# # @@#@$@%@&@*@=@Y.-@;@>@,@'@)@!@~@{@]@^@/@(@_@:@",
"<@Q.[@}@|@# # 1@2@3@4@5@6@7@8@9@0@a@b@c@d@e@f@g@h@i@j@# # k@",
"l@m@n@o@p@# # q@r@r@E.s@t@u@v@w@5 W # # # # # x@y@z@A@B@C@D@",
"5.E@F@W W # # W W W # # # # 4.G@H@I@# # J@K@L@M@N@O@P@Q@R@S@"};
