/* XPM */
static char * gr22x15_xpm[] = {
"28 15 74 1",
" 	c None",
".	c #000098",
"+	c #000099",
"@	c #000095",
"#	c #E3E3F4",
"$	c #ECECF7",
"%	c #0B0B99",
"&	c #010198",
"*	c #06069A",
"=	c #05059A",
"-	c #000097",
";	c #000094",
">	c #EBEBF7",
",	c #080898",
"'	c #2525A7",
")	c #8888CF",
"!	c #8080CC",
"~	c #2C2CAA",
"{	c #2929A9",
"]	c #2424A6",
"^	c #E7E7F6",
"/	c #EFEFF8",
"(	c #3232A9",
"_	c #6363BF",
":	c #E7E7F5",
"<	c #DFDFF2",
"[	c #E0E0F2",
"}	c #DDDDF0",
"|	c #E0E0F3",
"1	c #E2E2F4",
"2	c #FCFCFD",
"3	c #FDFDFE",
"4	c #A7A7DC",
"5	c #13139D",
"6	c #1B1BA2",
"7	c #1F1FA3",
"8	c #7171C5",
"9	c #7171C6",
"0	c #6E6EC3",
"a	c #EFEFF9",
"b	c #F4F4FA",
"c	c #7676C6",
"d	c #7272C6",
"e	c #7D7DCA",
"f	c #9797D3",
"g	c #9595D4",
"h	c #9595D3",
"i	c #000092",
"j	c #000091",
"k	c #00008E",
"l	c #E1E1F3",
"m	c #EAEAF6",
"n	c #2E2EAA",
"o	c #C2C2E6",
"p	c #B9B9E2",
"q	c #B8B8E2",
"r	c #12129F",
"s	c #11119E",
"t	c #0A0A9B",
"u	c #E4E4F5",
"v	c #EDEDF7",
"w	c #19199F",
"x	c #11119F",
"y	c #1616A0",
"z	c #2424A4",
"A	c #2222A3",
"B	c #2525A6",
"C	c #BBBBE3",
"D	c #BCBCE3",
"E	c #BABAE2",
"F	c #FFFFFF",
"G	c #BEBEE3",
"H	c #BBBBE2",
"I	c #8D8DD1",
"                            ",
" .+.@#$%+.&*=============== ",
" .--;#>,.-')!!!!!!!!!!!!!!! ",
" ~{{]^/({{_:<<<<<<<<<<<<<[} ",
" |#11231##45666666666666667 ",
" 8890abcd8efggggggggggggggh ",
" ijjklmijjnoppppppppppppppq ",
" rsstuvwxsyzAAAAAAAAAAAAAAB ",
" CDDEFFGDDHpppppppppppppppq ",
" hgggIIgggggggggggggggggggh ",
" 76666666666666666666666667 ",
" }[<<<<<<<<<<<<<<<<<<<<<<[} ",
" !!!!!!!!!!!!!!!!!!!!!!!!!! ",
" ========================== ",
"                            "};
