/* XPM */
static char * gr_txt_xpm[] = {
"28 15 2 1",
" 	c None",
".	c #FFFFFF",
"                            ",
"                            ",
" .......  ..       ..       ",
" .          .        .      ",
" .          ..       ..     ",
" .           .        .     ",
" .          ..       ..     ",
" .......    . .      . .    ",
" .         .  .     .  .    ",
" .         .   .    .   .   ",
" .        .    .   .    .   ",
" .        .    .   .    .   ",
" ....... .      . .      .  ",
"                            ",
"                            "};
