/* XPM */
static char * us22x15_xpm[] = {
"27 15 112 2",
"  	c None",
". 	c #2E2E82",
"+ 	c #181872",
"@ 	c #3B3B89",
"# 	c #09096B",
"$ 	c #3C3C89",
"% 	c #191972",
"& 	c #303082",
"* 	c #24247A",
"= 	c #23267C",
"- 	c #402C77",
"; 	c #88092B",
"> 	c #D9100B",
", 	c #CE0F0F",
"' 	c #CF0F0F",
") 	c #CE0E0E",
"! 	c #D01717",
"~ 	c #0F0F6F",
"{ 	c #44448E",
"] 	c #1E1E76",
"^ 	c #464690",
"/ 	c #1F1F77",
"( 	c #42428D",
"_ 	c #2D2D7F",
": 	c #383886",
"< 	c #353585",
"[ 	c #2C297C",
"} 	c #A18BAE",
"| 	c #FFDDD8",
"1 	c #F6D3D4",
"2 	c #F6D4D4",
"3 	c #F4C9C9",
"4 	c #2E2E81",
"5 	c #31317F",
"6 	c #3F3F8C",
"7 	c #40408C",
"8 	c #2F2F7F",
"9 	c #3B3B88",
"0 	c #363683",
"a 	c #353785",
"b 	c #43337C",
"c 	c #8D294A",
"d 	c #E24440",
"e 	c #D74141",
"f 	c #DA4848",
"g 	c #24247B",
"h 	c #333384",
"i 	c #2F2F81",
"j 	c #353583",
"k 	c #363685",
"l 	c #363684",
"m 	c #343584",
"n 	c #3C3682",
"o 	c #9B6F92",
"p 	c #F9B1AD",
"q 	c #EEAAAA",
"r 	c #EDA5A5",
"s 	c #161673",
"t 	c #3E3E8A",
"u 	c #25257B",
"v 	c #3D3D8B",
"w 	c #26267B",
"x 	c #3D3D8A",
"y 	c #343686",
"z 	c #2F2273",
"A 	c #924063",
"B 	c #EA6965",
"C 	c #DF6565",
"D 	c #E06666",
"E 	c #27277D",
"F 	c #2B2B7C",
"G 	c #393987",
"H 	c #202077",
"I 	c #3A3A87",
"J 	c #363585",
"K 	c #313180",
"L 	c #2F3081",
"M 	c #3E3582",
"N 	c #955C80",
"O 	c #F49A95",
"P 	c #E99393",
"Q 	c #E99090",
"R 	c #4B5199",
"S 	c #4D5399",
"T 	c #545A9F",
"U 	c #484E96",
"V 	c #555B9F",
"W 	c #53599D",
"X 	c #51569A",
"Y 	c #4E569C",
"Z 	c #5C5696",
"` 	c #A55B77",
" .	c #EB726E",
"..	c #E26F6F",
"+.	c #E16F6F",
"@.	c #E37171",
"#.	c #C39CAF",
"$.	c #C19AAD",
"%.	c #C099AC",
"&.	c #C29BAE",
"*.	c #C29AAD",
"=.	c #C19BAE",
"-.	c #C79BAC",
";.	c #DC969C",
">.	c #EB9392",
",.	c #E36361",
"'.	c #E36562",
").	c #E36461",
"!.	c #E36462",
"~.	c #E06564",
"{.	c #F5D3D3",
"].	c #CF1010",
"                                                      ",
"  . + @ # $ % & * = - ; > , ' ' ' ' ' ' ' ' ' ' ' ) ! ",
"  ~ { ] ^ / ( _ : < [ } | 1 2 2 2 2 2 2 2 2 2 2 2 2 3 ",
"  4 5 6 * 7 8 9 0 a b c d e e e e e e e e e e e e e f ",
"  g 0 h i < j k l m n o p q q q q q q q q q q q q q r ",
"  s t u v w x i k y z A B C C C C C C C C C C C C C D ",
"  E F G H I F J K L M N O P P P P P P P P P P P P P Q ",
"  R S T U V S W X Y Z `  .........+.+.....+...+.+.+.@.",
"  #.$.#.%.#.$.&.*.=.-.;.>.P P P P P P P P P P P P P Q ",
"  ,.'.).'.).).).).).!.~.C C C C C C C C C C C C C C D ",
"  q q q q q q q q q q q q q q q q q q q q q q q q q r ",
"  e e e e e e e e e e e e e e e e e e e e e e e e e f ",
"  {.2 2 2 2 2 2 2 2 2 2 2 2 2 2 2 2 2 2 2 2 2 2 2 2 3 ",
"  ]., ' ' ' ' ' ' ' ' ' ' ' ' ' ' ' ' ' ' ' ' ' ' ) ! ",
"                                                      "};
